<?xml version="1.0" standalone="no"?>
<!DOCTYPE svg PUBLIC "-//W3C//DTD SVG 20010904//EN"
 "http://www.w3.org/TR/2001/REC-SVG-20010904/DTD/svg10.dtd">
<svg version="1.0" xmlns="http://www.w3.org/2000/svg"
 width="200.000000pt" height="200.000000pt" viewBox="0 0 200.000000 200.000000"
 preserveAspectRatio="xMidYMid meet">
<metadata>
Created by potrace 1.16, written by Peter Selinger 2001-2019
</metadata>
<g transform="translate(0.000000,200.000000) scale(0.100000,-0.100000)"
fill="#000000" stroke="none">
<path d="M1150 1426 c-667 -387 -695 -404 -695 -432 0 -29 1 -29 219 -104
l220 -75 70 -211 c39 -116 77 -219 85 -228 28 -34 54 -14 156 121 55 73 105
137 111 143 9 9 51 -5 165 -54 84 -36 161 -66 171 -66 10 0 23 10 28 22 12 28
220 1208 220 1247 0 27 -16 42 -43 40 -7 0 -325 -181 -707 -403z m123 -178
l-353 -353 -164 55 -164 55 512 297 c281 163 513 297 516 297 3 1 -154 -158
-347 -351z m424 -160 l-82 -466 -201 86 -201 85 281 394 c155 216 282 388 283
381 2 -7 -34 -223 -80 -480z m-199 250 c-13 -18 -98 -136 -188 -263 -90 -126
-173 -241 -186 -255 -15 -17 -28 -53 -39 -110 -9 -47 -19 -94 -22 -105 -5 -18
-6 -18 -15 4 -4 13 -6 32 -3 42 4 12 1 21 -8 24 -7 3 -24 40 -37 81 l-24 75
270 270 c148 148 271 269 273 269 2 0 -8 -15 -21 -32z"/>
<path d="M107 373 c-4 -3 -7 -19 -7 -34 0 -23 10 -34 57 -63 64 -40 97 -45
113 -17 15 30 4 47 -62 85 -57 35 -87 43 -101 29z"/>
</g>
</svg>
